# xmcd
# 
# Track frame offsets:
#     150
#     18061
#     34350
#     68402
# 
# Disc length: 1372
# 
# Revision: 0
# Processed by: cddbd v1.5.2PL0 Copyright (c) Steve Scherf et al.
# Submitted via: BonkEnc v1.0.15
# 
DISCID=25055a04
DTITLE=Eric Morillo - Jazz In Your Face
DYEAR=2006
DGENRE=House
TTITLE0=Jazz In Your Face (Sal Basile Radio Edit)
TTITLE1=Jazz In Your Face (Richard Grey Radio Edit)
TTITLE2=Jazz In Your Face (Sal Basile Remix)
TTITLE3=Jazz In Your Face (Richard Grey Remix)
EXTD=
EXTT0=
EXTT1=
EXTT2=
EXTT3=
PLAYORDER=
